<svg xmlns="http://www.w3.org/2000/svg" width="647.6" height="632.2" viewBox="0 0 648 632"><path d="M411 142H237a15 15 0 00-15 15v388l-2 1-43 13a8 8 0 01-10-6L39 137a8 8 0 016-10l66-20 191-58 66-20a8 8 0 0110 5l33 106z" fill="#f2f2f2"/><path d="M449 140L410 12a17 17 0 00-21-11l-93 28-191 59-93 28a17 17 0 00-11 21l134 438a17 17 0 0016 12 17 17 0 005 0l64-20 2-1v-2l-2 1-65 20a15 15 0 01-18-10L3 137a15 15 0 0110-19l92-28 192-59 92-28a15 15 0 015-1 15 15 0 0114 11l39 127 1 2h2z" fill="#3f3d56"/><path d="M123 128a9 9 0 01-9-7l-13-42a9 9 0 016-11l176-54a9 9 0 0111 6l13 42a9 9 0 01-6 12l-176 53a9 9 0 01-2 1z" fill="#85b637"/><circle cx="190.2" cy="25" r="20" fill="#85b637"/><circle cx="190.2" cy="25" r="12.7" fill="#fff"/><path d="M603 582H265a9 9 0 01-9-8V169a9 9 0 019-9h338a9 9 0 018 9v405a9 9 0 01-8 8z" fill="#e6e6e6"/><path d="M447 140H237a17 17 0 00-17 17v408l2-1V157a15 15 0 0115-15h211zm184 0H237a17 17 0 00-17 17v458a17 17 0 0017 17h394a17 17 0 0017-17V157a17 17 0 00-17-17zm15 475a15 15 0 01-15 15H237a15 15 0 01-15-15V157a15 15 0 0115-15h394a15 15 0 0115 15z" fill="#3f3d56"/><path d="M526 184H342a9 9 0 01-9-9v-44a9 9 0 019-9h184a9 9 0 019 9v44a9 9 0 01-9 9z" fill="#85b637"/><circle cx="433.6" cy="105.2" r="20" fill="#85b637"/><circle cx="433.6" cy="105.2" r="12.2" fill="#fff"/></svg>